<svg width="22" height="17" viewBox="0 0 22 17" fill="none" xmlns="http://www.w3.org/2000/svg">
<g clip-path="url(#clip0_1_105)">
<path fill-rule="evenodd" clip-rule="evenodd" d="M21.008 1.89598C20.235 2.21798 19.404 2.43298 18.533 2.53098C19.423 2.03098 20.106 1.23898 20.428 0.296977C19.594 0.758977 18.672 1.09498 17.69 1.27698C16.905 0.490977 15.784 0.000976562 14.545 0.000976562C12.165 0.000976562 10.234 1.80998 10.234 4.03998C10.234 4.35698 10.272 4.66598 10.346 4.96098C6.764 4.79198 3.588 3.18398 1.462 0.740977C1.091 1.33798 0.879 2.03098 0.879 2.77198C0.879 4.17198 1.64 5.40998 2.796 6.13398C2.09 6.11198 1.426 5.93098 0.844 5.62798C0.844 5.64598 0.844 5.66098 0.844 5.67998C0.844 7.63698 2.329 9.26898 4.301 9.63998C3.94 9.73198 3.558 9.77998 3.166 9.77998C2.888 9.77998 2.618 9.75598 2.355 9.70998C2.903 11.313 4.495 12.482 6.381 12.515C4.906 13.598 3.048 14.243 1.028 14.243C0.68 14.243 0.337 14.224 0 14.187C1.907 15.332 4.173 16.002 6.607 16.002C14.535 16.002 18.87 9.84598 18.87 4.50898C18.87 4.33298 18.865 4.15998 18.857 3.98598C19.699 3.41598 20.43 2.70498 21.008 1.89598Z" fill="white"/>
</g>
<defs>
<clipPath id="clip0_1_105">
<rect width="22" height="17" fill="white"/>
</clipPath>
</defs>
</svg>
