<svg width="16" height="11" viewBox="0 0 16 11" fill="none" xmlns="http://www.w3.org/2000/svg">
<path d="M8.13945 6.16166L8.13943 6.16163L8.13512 6.16456C8.10734 6.18343 8.06694 6.19696 8.0235 6.19696H8.02008C7.95651 6.19696 7.91576 6.17544 7.90255 6.1642L7.90186 6.16361L1.09985 0.4H14.9358L8.4497 5.90252L8.44932 5.90285L8.16437 6.1452L8.16349 6.14579L8.13945 6.16166ZM10.0346 6.48934L15.0112 10.6H0.983875L5.97125 6.45877L6.96401 7.30051L6.9651 7.30143C7.25806 7.54803 7.63451 7.67805 8.02235 7.67805C8.4099 7.67805 8.78655 7.54692 9.07963 7.29972L9.08053 7.29895L10.0346 6.48934ZM4.82991 5.4915L0.4 9.17041V1.73773L4.82991 5.4915ZM15.6 1.76878V9.17559L11.1765 5.52124L15.6 1.76878Z" stroke="white" stroke-width="0.8"/>
</svg>
